<svg width="461" height="94" viewBox="0 0 461 94" xmlns="http://www.w3.org/2000/svg">
<g>
<path d="M80.2216 0.181815V94H58.9659L25.0668 44.7088H24.517V94H-0.953125V0.181815H20.669L54.0185 49.2898H54.7514V0.181815H80.2216ZM204.893 94V0.181815H270.858V20.7045H230.363V36.8295H266.827V57.3523H230.363V94H204.893ZM277.661 20.7045V0.181815H359.202V20.7045H330.984V94H305.88V20.7045H277.661ZM364.94 0.181815H393.342L411.666 38.2955H412.399L430.723 0.181815H459.125L424.676 64.4986V94H399.389V64.4986L364.94 0.181815Z" fill="currentColor"/>
<path d="M117.74 0.181815V94H92.2695V0.181815H117.74Z" fill="#FF0000"/>
<path d="M155.281 0.181815V94H129.811V0.181815H155.281Z" fill="#00FF00"/>
<path d="M192.822 0.181815V94H167.352V0.181815H192.822Z" fill="#0000FF"/>
</g>
</svg>
